<svg width="44" height="32" viewBox="0 0 44 32" fill="none" xmlns="http://www.w3.org/2000/svg">
<path d="M13 30L31 30" stroke="white" stroke-width="4" stroke-linecap="round"/>
<path d="M20 29C20 30.1046 20.8954 31 22 31C23.1046 31 24 30.1046 24 29H20ZM24 25V23H20V25H24ZM24 29V25H20V29H24Z" fill="white"/>
<rect x="0.5" y="19.5" width="43" height="3" rx="1.5" stroke="white"/>
<rect x="34" y="20" width="5" height="4" transform="rotate(-90 34 20)" fill="white"/>
<path d="M27.5354 12.5H43.4646C43.2219 14.1961 41.7632 15.5 40 15.5H31C29.2368 15.5 27.7781 14.1961 27.5354 12.5Z" stroke="white"/>
<path d="M39.5 2.72372V12C39.5 12.2761 39.2761 12.5 39 12.5H33C32.7239 12.5 32.5 12.2761 32.5 12V2.72372C32.5 2.55056 32.5896 2.38973 32.7368 2.29859L35.5213 0.574868C35.6004 0.525927 35.6915 0.5 35.7845 0.5H36.2155C36.3085 0.5 36.3996 0.525927 36.4787 0.574867L39.2632 2.29859C39.4104 2.38973 39.5 2.55056 39.5 2.72372Z" stroke="white"/>
<path d="M34 8.33333H34.8C34.8 8.81333 35.348 9.22222 36 9.22222C36.652 9.22222 37.2 8.81333 37.2 8.33333C37.2 7.84444 36.784 7.66667 35.904 7.43111C35.056 7.19556 34 6.90222 34 5.66667C34 4.87111 34.588 4.19556 35.4 3.96889V3H36.6V3.96889C37.412 4.19556 38 4.87111 38 5.66667H37.2C37.2 5.18667 36.652 4.77778 36 4.77778C35.348 4.77778 34.8 5.18667 34.8 5.66667C34.8 6.15556 35.216 6.33333 36.096 6.56889C36.944 6.80444 38 7.09778 38 8.33333C38 9.12889 37.412 9.80444 36.6 10.0311V11H35.4V10.0311C34.588 9.80444 34 9.12889 34 8.33333Z" fill="white"/>
<rect x="7" y="20" width="5" height="4" transform="rotate(-90 7 20)" fill="white"/>
<path d="M0.535444 12.5H16.4646C16.2219 14.1961 14.7632 15.5 13 15.5H4C2.23676 15.5 0.778059 14.1961 0.535444 12.5Z" stroke="white"/>
<path d="M12.5 2.72372V12C12.5 12.2761 12.2761 12.5 12 12.5H6C5.72386 12.5 5.5 12.2761 5.5 12V2.72372C5.5 2.55056 5.58959 2.38973 5.73682 2.29859L8.5213 0.574868C8.60036 0.525927 8.69149 0.5 8.78448 0.5H9.21552C9.30851 0.5 9.39964 0.525927 9.4787 0.574867L12.2632 2.29859C12.4104 2.38973 12.5 2.55056 12.5 2.72372Z" stroke="white"/>
<path d="M7 8.33333H7.8C7.8 8.81333 8.348 9.22222 9 9.22222C9.652 9.22222 10.2 8.81333 10.2 8.33333C10.2 7.84444 9.784 7.66667 8.904 7.43111C8.056 7.19556 7 6.90222 7 5.66667C7 4.87111 7.588 4.19556 8.4 3.96889V3H9.6V3.96889C10.412 4.19556 11 4.87111 11 5.66667H10.2C10.2 5.18667 9.652 4.77778 9 4.77778C8.348 4.77778 7.8 5.18667 7.8 5.66667C7.8 6.15556 8.216 6.33333 9.096 6.56889C9.944 6.80444 11 7.09778 11 8.33333C11 9.12889 10.412 9.80444 9.6 10.0311V11H8.4V10.0311C7.588 9.80444 7 9.12889 7 8.33333Z" fill="white"/>
</svg>
